<svg width="389" height="76" viewBox="0 0 389 76" fill="none" xmlns="http://www.w3.org/2000/svg">
<g filter="url(#filter0_d_288_146)">
<rect x="4.5" y="2" width="380" height="68" rx="15" fill="white"/>
</g>
<path d="M113.578 44L112.461 40.8281H108.094L106.977 44H105L109.25 32.5312H111.328L115.57 44H113.578ZM111.977 39.2188L110.891 36.0938C110.849 35.9583 110.789 35.7682 110.711 35.5234C110.633 35.2734 110.555 35.0208 110.477 34.7656C110.398 34.5052 110.333 34.2865 110.281 34.1094C110.229 34.3229 110.164 34.5625 110.086 34.8281C110.013 35.0885 109.94 35.3333 109.867 35.5625C109.799 35.7917 109.747 35.9688 109.711 36.0938L108.617 39.2188H111.977ZM120.375 44.1562C119.557 44.1562 118.849 43.9974 118.25 43.6797C117.651 43.362 117.19 42.875 116.867 42.2188C116.544 41.5625 116.383 40.7292 116.383 39.7188C116.383 38.6667 116.56 37.8073 116.914 37.1406C117.268 36.474 117.758 35.9818 118.383 35.6641C119.013 35.3464 119.734 35.1875 120.547 35.1875C121.062 35.1875 121.529 35.2396 121.945 35.3438C122.367 35.4427 122.724 35.5651 123.016 35.7109L122.469 37.1797C122.151 37.0495 121.826 36.9401 121.492 36.8516C121.159 36.763 120.839 36.7188 120.531 36.7188C120.026 36.7188 119.604 36.8307 119.266 37.0547C118.932 37.2786 118.682 37.612 118.516 38.0547C118.354 38.4974 118.273 39.0469 118.273 39.7031C118.273 40.3385 118.357 40.875 118.523 41.3125C118.69 41.7448 118.938 42.0729 119.266 42.2969C119.594 42.5156 119.997 42.625 120.477 42.625C120.951 42.625 121.375 42.5677 121.75 42.4531C122.125 42.3385 122.479 42.1901 122.812 42.0078V43.6016C122.484 43.7891 122.133 43.9271 121.758 44.0156C121.383 44.1094 120.922 44.1562 120.375 44.1562ZM128.289 35.1875C129.06 35.1875 129.721 35.3464 130.273 35.6641C130.826 35.9818 131.25 36.4323 131.547 37.0156C131.844 37.599 131.992 38.2969 131.992 39.1094V40.0938H126.219C126.24 40.9323 126.464 41.5781 126.891 42.0312C127.323 42.4844 127.927 42.7109 128.703 42.7109C129.255 42.7109 129.75 42.6589 130.188 42.5547C130.63 42.4453 131.086 42.2865 131.555 42.0781V43.5703C131.122 43.7734 130.682 43.9219 130.234 44.0156C129.786 44.1094 129.25 44.1562 128.625 44.1562C127.776 44.1562 127.029 43.9922 126.383 43.6641C125.742 43.3307 125.24 42.8359 124.875 42.1797C124.516 41.5234 124.336 40.7083 124.336 39.7344C124.336 38.7656 124.5 37.9427 124.828 37.2656C125.156 36.5885 125.617 36.0729 126.211 35.7188C126.805 35.3646 127.497 35.1875 128.289 35.1875ZM128.289 36.5703C127.711 36.5703 127.242 36.7578 126.883 37.1328C126.529 37.5078 126.32 38.0573 126.258 38.7812H130.195C130.19 38.349 130.117 37.9661 129.977 37.6328C129.841 37.2995 129.633 37.0391 129.352 36.8516C129.076 36.6641 128.721 36.5703 128.289 36.5703ZM139.875 41.5312C139.875 42.099 139.737 42.5781 139.461 42.9688C139.185 43.3594 138.781 43.6562 138.25 43.8594C137.724 44.0573 137.078 44.1562 136.312 44.1562C135.708 44.1562 135.188 44.112 134.75 44.0234C134.318 43.9401 133.909 43.8099 133.523 43.6328V42.0469C133.935 42.2396 134.396 42.4062 134.906 42.5469C135.422 42.6875 135.909 42.7578 136.367 42.7578C136.971 42.7578 137.406 42.6641 137.672 42.4766C137.938 42.2839 138.07 42.0286 138.07 41.7109C138.07 41.5234 138.016 41.3568 137.906 41.2109C137.802 41.0599 137.604 40.9062 137.312 40.75C137.026 40.5885 136.604 40.3958 136.047 40.1719C135.5 39.9531 135.039 39.7344 134.664 39.5156C134.289 39.2969 134.005 39.0339 133.812 38.7266C133.62 38.4141 133.523 38.0156 133.523 37.5312C133.523 36.7656 133.826 36.1849 134.43 35.7891C135.039 35.388 135.844 35.1875 136.844 35.1875C137.375 35.1875 137.875 35.2422 138.344 35.3516C138.818 35.4557 139.281 35.6094 139.734 35.8125L139.156 37.1953C138.766 37.0234 138.372 36.8828 137.977 36.7734C137.586 36.6589 137.188 36.6016 136.781 36.6016C136.307 36.6016 135.945 36.6745 135.695 36.8203C135.451 36.9661 135.328 37.1745 135.328 37.4453C135.328 37.6484 135.388 37.8203 135.508 37.9609C135.628 38.1016 135.833 38.2422 136.125 38.3828C136.422 38.5234 136.833 38.6979 137.359 38.9062C137.875 39.1042 138.32 39.3125 138.695 39.5312C139.076 39.7448 139.367 40.0078 139.57 40.3203C139.773 40.6328 139.875 41.0365 139.875 41.5312ZM147.672 41.5312C147.672 42.099 147.534 42.5781 147.258 42.9688C146.982 43.3594 146.578 43.6562 146.047 43.8594C145.521 44.0573 144.875 44.1562 144.109 44.1562C143.505 44.1562 142.984 44.112 142.547 44.0234C142.115 43.9401 141.706 43.8099 141.32 43.6328V42.0469C141.732 42.2396 142.193 42.4062 142.703 42.5469C143.219 42.6875 143.706 42.7578 144.164 42.7578C144.768 42.7578 145.203 42.6641 145.469 42.4766C145.734 42.2839 145.867 42.0286 145.867 41.7109C145.867 41.5234 145.812 41.3568 145.703 41.2109C145.599 41.0599 145.401 40.9062 145.109 40.75C144.823 40.5885 144.401 40.3958 143.844 40.1719C143.297 39.9531 142.836 39.7344 142.461 39.5156C142.086 39.2969 141.802 39.0339 141.609 38.7266C141.417 38.4141 141.32 38.0156 141.32 37.5312C141.32 36.7656 141.622 36.1849 142.227 35.7891C142.836 35.388 143.641 35.1875 144.641 35.1875C145.172 35.1875 145.672 35.2422 146.141 35.3516C146.615 35.4557 147.078 35.6094 147.531 35.8125L146.953 37.1953C146.562 37.0234 146.169 36.8828 145.773 36.7734C145.383 36.6589 144.984 36.6016 144.578 36.6016C144.104 36.6016 143.742 36.6745 143.492 36.8203C143.247 36.9661 143.125 37.1745 143.125 37.4453C143.125 37.6484 143.185 37.8203 143.305 37.9609C143.424 38.1016 143.63 38.2422 143.922 38.3828C144.219 38.5234 144.63 38.6979 145.156 38.9062C145.672 39.1042 146.117 39.3125 146.492 39.5312C146.872 39.7448 147.164 40.0078 147.367 40.3203C147.57 40.6328 147.672 41.0365 147.672 41.5312ZM151.492 35.3516V44H149.656V35.3516H151.492ZM150.586 32.0391C150.867 32.0391 151.109 32.1146 151.312 32.2656C151.521 32.4167 151.625 32.6771 151.625 33.0469C151.625 33.4115 151.521 33.6719 151.312 33.8281C151.109 33.9792 150.867 34.0547 150.586 34.0547C150.294 34.0547 150.047 33.9792 149.844 33.8281C149.646 33.6719 149.547 33.4115 149.547 33.0469C149.547 32.6771 149.646 32.4167 149.844 32.2656C150.047 32.1146 150.294 32.0391 150.586 32.0391ZM155.961 31.8438V34.7734C155.961 35.112 155.951 35.4453 155.93 35.7734C155.914 36.0964 155.898 36.349 155.883 36.5312H155.961C156.195 36.1562 156.521 35.8411 156.938 35.5859C157.359 35.3255 157.898 35.1953 158.555 35.1953C159.581 35.1953 160.406 35.5729 161.031 36.3281C161.656 37.0781 161.969 38.1901 161.969 39.6641C161.969 40.6432 161.826 41.4661 161.539 42.1328C161.253 42.7995 160.849 43.3047 160.328 43.6484C159.812 43.987 159.206 44.1562 158.508 44.1562C157.852 44.1562 157.32 44.0365 156.914 43.7969C156.513 43.5521 156.198 43.2682 155.969 42.9453H155.836L155.5 44H154.125V31.8438H155.961ZM158.07 36.6875C157.549 36.6875 157.135 36.7917 156.828 37C156.526 37.2083 156.307 37.5208 156.172 37.9375C156.036 38.349 155.966 38.8724 155.961 39.5078V39.6719C155.961 40.6354 156.112 41.3724 156.414 41.8828C156.721 42.3932 157.279 42.6484 158.086 42.6484C158.727 42.6484 159.219 42.3906 159.562 41.875C159.906 41.3542 160.078 40.6094 160.078 39.6406C160.078 38.6615 159.906 37.9245 159.562 37.4297C159.224 36.9349 158.727 36.6875 158.07 36.6875ZM165.93 35.3516V44H164.094V35.3516H165.93ZM165.023 32.0391C165.305 32.0391 165.547 32.1146 165.75 32.2656C165.958 32.4167 166.062 32.6771 166.062 33.0469C166.062 33.4115 165.958 33.6719 165.75 33.8281C165.547 33.9792 165.305 34.0547 165.023 34.0547C164.732 34.0547 164.484 33.9792 164.281 33.8281C164.083 33.6719 163.984 33.4115 163.984 33.0469C163.984 32.6771 164.083 32.4167 164.281 32.2656C164.484 32.1146 164.732 32.0391 165.023 32.0391ZM170.406 44H168.562V31.8438H170.406V44ZM174.867 35.3516V44H173.031V35.3516H174.867ZM173.961 32.0391C174.242 32.0391 174.484 32.1146 174.688 32.2656C174.896 32.4167 175 32.6771 175 33.0469C175 33.4115 174.896 33.6719 174.688 33.8281C174.484 33.9792 174.242 34.0547 173.961 34.0547C173.669 34.0547 173.422 33.9792 173.219 33.8281C173.021 33.6719 172.922 33.4115 172.922 33.0469C172.922 32.6771 173.021 32.4167 173.219 32.2656C173.422 32.1146 173.669 32.0391 173.961 32.0391ZM180.406 44.1562C179.375 44.1562 178.547 43.7812 177.922 43.0312C177.302 42.276 176.992 41.1641 176.992 39.6953C176.992 38.2109 177.307 37.0885 177.938 36.3281C178.573 35.5677 179.409 35.1875 180.445 35.1875C180.883 35.1875 181.266 35.2474 181.594 35.3672C181.922 35.4818 182.203 35.638 182.438 35.8359C182.677 36.0339 182.88 36.2552 183.047 36.5H183.133C183.107 36.3385 183.076 36.1068 183.039 35.8047C183.008 35.4974 182.992 35.2135 182.992 34.9531V31.8438H184.836V44H183.398L183.07 42.8203H182.992C182.836 43.0703 182.638 43.2969 182.398 43.5C182.164 43.6979 181.883 43.8568 181.555 43.9766C181.232 44.0964 180.849 44.1562 180.406 44.1562ZM180.922 42.6641C181.708 42.6641 182.263 42.4375 182.586 41.9844C182.909 41.5312 183.076 40.8516 183.086 39.9453V39.7031C183.086 38.7344 182.93 37.9922 182.617 37.4766C182.305 36.9557 181.734 36.6953 180.906 36.6953C180.245 36.6953 179.74 36.9635 179.391 37.5C179.047 38.0312 178.875 38.7734 178.875 39.7266C178.875 40.6797 179.047 41.4089 179.391 41.9141C179.74 42.4141 180.25 42.6641 180.922 42.6641ZM190.859 35.1875C191.953 35.1875 192.779 35.4297 193.336 35.9141C193.898 36.3984 194.18 37.1536 194.18 38.1797V44H192.875L192.523 42.7734H192.461C192.216 43.0859 191.964 43.3438 191.703 43.5469C191.443 43.75 191.141 43.901 190.797 44C190.458 44.1042 190.044 44.1562 189.555 44.1562C189.039 44.1562 188.578 44.0625 188.172 43.875C187.766 43.6823 187.445 43.3906 187.211 43C186.977 42.6094 186.859 42.1146 186.859 41.5156C186.859 40.625 187.19 39.9557 187.852 39.5078C188.518 39.0599 189.523 38.8125 190.867 38.7656L192.367 38.7109V38.2578C192.367 37.6589 192.227 37.2318 191.945 36.9766C191.669 36.7214 191.279 36.5938 190.773 36.5938C190.341 36.5938 189.922 36.6562 189.516 36.7812C189.109 36.9062 188.714 37.0599 188.328 37.2422L187.734 35.9453C188.156 35.7214 188.635 35.5391 189.172 35.3984C189.714 35.2578 190.276 35.1875 190.859 35.1875ZM192.359 39.8672L191.242 39.9062C190.326 39.9375 189.682 40.0938 189.312 40.375C188.943 40.6562 188.758 41.0417 188.758 41.5312C188.758 41.9583 188.885 42.2708 189.141 42.4688C189.396 42.6615 189.732 42.7578 190.148 42.7578C190.784 42.7578 191.31 42.5781 191.727 42.2188C192.148 41.8542 192.359 41.3203 192.359 40.6172V39.8672ZM199.656 44.1562C198.625 44.1562 197.797 43.7812 197.172 43.0312C196.552 42.276 196.242 41.1641 196.242 39.6953C196.242 38.2109 196.557 37.0885 197.188 36.3281C197.823 35.5677 198.659 35.1875 199.695 35.1875C200.133 35.1875 200.516 35.2474 200.844 35.3672C201.172 35.4818 201.453 35.638 201.688 35.8359C201.927 36.0339 202.13 36.2552 202.297 36.5H202.383C202.357 36.3385 202.326 36.1068 202.289 35.8047C202.258 35.4974 202.242 35.2135 202.242 34.9531V31.8438H204.086V44H202.648L202.32 42.8203H202.242C202.086 43.0703 201.888 43.2969 201.648 43.5C201.414 43.6979 201.133 43.8568 200.805 43.9766C200.482 44.0964 200.099 44.1562 199.656 44.1562ZM200.172 42.6641C200.958 42.6641 201.513 42.4375 201.836 41.9844C202.159 41.5312 202.326 40.8516 202.336 39.9453V39.7031C202.336 38.7344 202.18 37.9922 201.867 37.4766C201.555 36.9557 200.984 36.6953 200.156 36.6953C199.495 36.6953 198.99 36.9635 198.641 37.5C198.297 38.0312 198.125 38.7734 198.125 39.7266C198.125 40.6797 198.297 41.4089 198.641 41.9141C198.99 42.4141 199.5 42.6641 200.172 42.6641ZM210.164 35.1875C210.935 35.1875 211.596 35.3464 212.148 35.6641C212.701 35.9818 213.125 36.4323 213.422 37.0156C213.719 37.599 213.867 38.2969 213.867 39.1094V40.0938H208.094C208.115 40.9323 208.339 41.5781 208.766 42.0312C209.198 42.4844 209.802 42.7109 210.578 42.7109C211.13 42.7109 211.625 42.6589 212.062 42.5547C212.505 42.4453 212.961 42.2865 213.43 42.0781V43.5703C212.997 43.7734 212.557 43.9219 212.109 44.0156C211.661 44.1094 211.125 44.1562 210.5 44.1562C209.651 44.1562 208.904 43.9922 208.258 43.6641C207.617 43.3307 207.115 42.8359 206.75 42.1797C206.391 41.5234 206.211 40.7083 206.211 39.7344C206.211 38.7656 206.375 37.9427 206.703 37.2656C207.031 36.5885 207.492 36.0729 208.086 35.7188C208.68 35.3646 209.372 35.1875 210.164 35.1875ZM210.164 36.5703C209.586 36.5703 209.117 36.7578 208.758 37.1328C208.404 37.5078 208.195 38.0573 208.133 38.7812H212.07C212.065 38.349 211.992 37.9661 211.852 37.6328C211.716 37.2995 211.508 37.0391 211.227 36.8516C210.951 36.6641 210.596 36.5703 210.164 36.5703Z" fill="black"/>
<path d="M36.5377 30.938V35.6559C35.4037 36.316 34.4355 37.2299 33.7083 38.3268C32.981 39.4238 32.514 40.6744 32.3434 41.9821C32.1728 43.2898 32.3032 44.6194 32.7245 45.8682C33.1457 47.1171 33.8466 48.2516 34.7729 49.1842C35.6992 50.1168 36.8261 50.8225 38.0665 51.2466C39.3069 51.6707 40.6276 51.802 41.9264 51.6303C43.2252 51.4585 44.4674 50.9883 45.557 50.2561C46.6465 49.5239 47.5543 48.5492 48.2099 47.4074H52.8938C52.1709 49.4611 50.9433 51.297 49.3253 52.744C47.7073 54.191 45.7518 55.2019 43.6409 55.6824C41.5301 56.1628 39.3328 56.0973 37.2539 55.4919C35.175 54.8864 33.2823 53.7608 31.7522 52.2199C30.2221 50.679 29.1046 48.7732 28.5038 46.68C27.903 44.5868 27.8384 42.3745 28.3162 40.2495C28.794 38.1244 29.7986 36.1558 31.2362 34.5272C32.6738 32.8986 34.4977 31.6653 36.5377 30.938ZM45.081 45.2549C43.3816 45.2549 41.7519 44.5753 40.5502 43.3655C39.3486 42.1557 38.6735 40.5149 38.6735 38.8039V30.2026C38.6735 28.4917 39.3486 26.8509 40.5502 25.6411C41.7519 24.4313 43.3816 23.7516 45.081 23.7516C46.7803 23.7516 48.4101 24.4313 49.6117 25.6411C50.8133 26.8509 51.4884 28.4917 51.4884 30.2026V40.9543H54.5512C55.2303 40.9544 55.8996 41.1176 56.5036 41.4302C57.1075 41.7428 57.6287 42.1959 58.024 42.752L58.2141 43.0422L64 52.7488L60.3371 54.9637L54.5469 45.2571L45.081 45.2549ZM45.081 13C46.4971 13 47.8552 13.5664 48.8566 14.5745C49.858 15.5827 50.4205 16.9501 50.4205 18.3758C50.4205 19.8016 49.858 21.1689 48.8566 22.1771C47.8552 23.1853 46.4971 23.7516 45.081 23.7516C43.6648 23.7516 42.3067 23.1853 41.3054 22.1771C40.304 21.1689 39.7414 19.8016 39.7414 18.3758C39.7414 16.9501 40.304 15.5827 41.3054 14.5745C42.3067 13.5664 43.6648 13 45.081 13Z" fill="#1E1E1E"/>
<defs>
<filter id="filter0_d_288_146" x="0.5" y="0" width="388" height="76" filterUnits="userSpaceOnUse" color-interpolation-filters="sRGB">
<feFlood flood-opacity="0" result="BackgroundImageFix"/>
<feColorMatrix in="SourceAlpha" type="matrix" values="0 0 0 0 0 0 0 0 0 0 0 0 0 0 0 0 0 0 127 0" result="hardAlpha"/>
<feOffset dy="2"/>
<feGaussianBlur stdDeviation="2"/>
<feComposite in2="hardAlpha" operator="out"/>
<feColorMatrix type="matrix" values="0 0 0 0 0 0 0 0 0 0 0 0 0 0 0 0 0 0 0.25 0"/>
<feBlend mode="normal" in2="BackgroundImageFix" result="effect1_dropShadow_288_146"/>
<feBlend mode="normal" in="SourceGraphic" in2="effect1_dropShadow_288_146" result="shape"/>
</filter>
</defs>
</svg>
