<svg width="55" height="55" viewBox="0 0 55 55" fill="none" xmlns="http://www.w3.org/2000/svg">
<path d="M45.2603 17.7604H34.9478C34.34 17.7604 33.7572 17.519 33.3274 17.0892C32.8976 16.6594 32.6562 16.0765 32.6562 15.4688V5.15625M45.2603 17.7604V47.5521C45.2603 48.1599 45.0189 48.7428 44.5891 49.1725C44.1594 49.6023 43.5765 49.8438 42.9687 49.8438H12.0312C11.4234 49.8438 10.8405 49.6023 10.4107 49.1725C9.98095 48.7428 9.7395 48.1599 9.7395 47.5521V7.44792C9.7395 6.84013 9.98095 6.25723 10.4107 5.82746C10.8405 5.39769 11.4234 5.15625 12.0312 5.15625H32.6562M45.2603 17.7604L32.6562 5.15625" stroke="#6D6D6D" stroke-width="3" stroke-linecap="round" stroke-linejoin="round"/>
<path d="M45.2603 17.7604H34.9478C34.34 17.7604 33.7572 17.519 33.3274 17.0892C32.8976 16.6594 32.6562 16.0765 32.6562 15.4688V5.15625M45.2603 17.7604V47.5521C45.2603 48.1599 45.0189 48.7428 44.5891 49.1725C44.1594 49.6023 43.5765 49.8438 42.9687 49.8438H12.0312C11.4234 49.8438 10.8405 49.6023 10.4107 49.1725C9.98095 48.7428 9.7395 48.1599 9.7395 47.5521V7.44792C9.7395 6.84013 9.98095 6.25723 10.4107 5.82746C10.8405 5.39769 11.4234 5.15625 12.0312 5.15625H32.6562M45.2603 17.7604L32.6562 5.15625M17.1874 25.2083H37.8124M17.1874 31.5104H37.8124M17.1874 37.8125H29.7916" stroke="#6D6D6D" stroke-width="3" stroke-linecap="round" stroke-linejoin="round"/>
</svg>
