<svg width="893" height="806" viewBox="0 0 893 806" fill="none" xmlns="http://www.w3.org/2000/svg">
<path d="M351.982 250.069H336.099V636.098H351.982V250.069Z" fill="#160404"/>
<path d="M595.052 353.401C590.123 358.774 585.677 364.494 581.757 370.506L574.108 368.051C574.108 368.051 546.309 399.776 540.001 397.604L511.449 384.977L491.712 385.835V465.786L556.207 449.808C556.207 449.808 571.38 447.181 571.661 447.158C571.942 447.136 583.724 447.375 587.9 444.748L607.827 437.158L622.438 421.232L622.868 403.037C622.868 403.037 597.649 355.103 595.052 353.401Z" fill="#160404"/>
<path d="M478.805 373.193L473.687 373.476C473.687 373.476 466.799 390.164 462.88 390.641C462.88 390.641 390.357 392.388 382.163 393.738C382.163 393.738 394.094 394.895 408.357 420.896C408.357 420.896 437.471 415.471 439.215 415.582C439.215 415.582 468.56 417.933 473.166 435.173C473.166 435.173 479.781 446.748 471.644 471.308L479.086 470.062L478.805 373.193Z" fill="#160404"/>
<path d="M455.356 163.125C455.356 163.125 450.502 174.23 450.394 177.305C450.394 177.305 434.726 169.947 432.038 188.38C432.038 188.38 433.551 229.658 437.603 235.016L447.211 235.994C447.608 236.039 472.843 242.673 472.843 242.673L493.151 243.42C493.548 243.42 500.171 240.613 500.171 240.613C500.171 240.613 511.838 228.77 519.188 224.687C519.188 224.687 510.242 224.956 508.787 223.404C508.787 223.404 515.534 217.553 518.047 206.799C518.047 206.799 511.83 207.873 510.903 207.635C514.566 199.75 515.488 191.047 513.549 182.678C513.549 182.678 504.76 191.201 504.38 189.559C503.999 187.917 505.297 186.328 504.967 182.507C504.636 178.686 492.473 167.581 483.072 167.812C483.072 167.812 479.632 166.141 489.422 178.081C489.422 178.081 476.027 174.499 474.456 170.081C474.456 170.081 468.18 174.141 466.824 176.798C465.468 179.454 457.175 170.29 455.356 163.125Z" fill="#FFC3B0"/>
<path d="M333.006 224.27L333.362 224.307C332.948 224.456 332.593 224.598 332.279 224.725C332.733 224.419 333.006 224.27 333.006 224.27Z" fill="#FFC3B0"/>
<path d="M368.677 227.3C367.185 225.611 365.854 223.811 364.699 221.919C365.923 223.464 367.486 225.508 368.677 227.3Z" fill="#FFC3B0"/>
<path d="M471.43 471.809L427.325 484.063C427.325 484.063 422.463 492.884 421.942 500.078C421.942 500.078 421.537 504.556 419.371 506.049C419.371 506.049 397.873 537.677 390.613 544.856C390.613 544.856 347.228 598.224 344.037 609.224C344.037 609.224 329.633 614.448 326.78 612.956C326.78 612.956 332.709 605.56 332.304 602.224C332.304 602.224 326.755 598.306 326.78 597.746V566.842L384.999 458.301C384.999 458.301 385.594 436.658 388.786 429.023C388.786 429.023 395.326 420.292 436.255 416.336C436.255 416.336 463.541 414.366 473.166 435.173C473.166 435.165 479.376 448.345 471.43 471.809Z" fill="#FFC3B0"/>
<path d="M408.357 420.911C408.357 420.911 390.167 389.022 376.358 394.791C376.358 394.791 331.212 401.507 327.078 404.396V495.071L335.222 511.489L346.269 530.527L374.093 479.197L359.209 457.069L385.007 458.323C385.007 458.323 386.256 429.874 390.621 427.217L408.357 420.911Z" fill="#FFC3B0"/>
<path d="M390.613 544.796C390.613 544.796 403.223 596.642 406.712 600.022C406.712 600.022 386.247 607.03 386.57 606.306C386.57 606.306 391.126 598.194 388.86 594.977C388.86 594.977 373.274 597.052 373.729 595.642L367.527 575.589L390.613 544.796Z" fill="#FFC3B0"/>
<path d="M309.97 412.202C309.97 412.202 300.875 411.605 301.619 426.852C301.619 426.852 305.307 443.643 309.995 446.92L309.97 412.202Z" fill="#FFC3B0"/>
<path d="M500.741 240.031C500.741 240.031 519.263 220.904 530.177 220.456L541.538 229.74L538.868 230.605C538.868 230.605 578.507 266.659 600.055 326.878L596.913 351.311C596.913 351.311 585.99 362.886 581.756 370.536L574.108 368.081C574.108 368.081 544.432 401 540 397.634L511.449 385.007L491.712 385.835V315.758L513.277 314.631V307.474L465.625 298.518L457.009 273.032C457.009 273.032 466.344 282.846 469.784 288.578C469.784 288.578 475.878 292.653 479.822 291.973C479.822 291.973 488.636 291.324 491.332 286.003C491.332 286.003 496.376 281.772 495.202 277.003L488.463 258.263L485.825 255.121C485.825 255.121 497.591 255.614 495.648 248.606C495.648 248.606 481.592 244.875 478.433 243.24H496.723L500.741 240.031Z" fill="white"/>
<path d="M396.451 215.814C396.451 215.814 424.762 216.284 433.386 211.485C433.386 211.485 434.916 229.71 437.851 234.822L422.207 233.546C422.207 233.546 417.436 226.419 417.287 220.456C417.287 220.456 416.766 214.485 412.988 217.956C409.209 221.426 410.838 227.143 410.838 227.143C410.838 227.143 398.361 217.306 396.451 215.814Z" fill="#160404"/>
<path d="M485.825 255.151C485.825 255.151 495.02 255.345 496.194 249.703C496.194 249.703 495.888 247.412 492.498 247.464C489.108 247.517 475.134 243.233 475.134 243.233L447.145 236.001L422.05 232.755C422.05 232.755 418.247 228.867 416.601 218.307C416.601 218.307 415.063 212.896 411.863 220.822L410.797 227.12C410.797 227.12 402.288 219.598 401.552 219.568C400.816 219.538 389.15 213.344 388.91 213.269C388.67 213.194 387.091 211.403 383.742 214.075C383.742 214.075 371.116 214.739 369.603 214.374C368.09 214.008 362.459 214.433 363.17 218.322C363.455 219.565 363.952 220.76 364.642 221.866C363.55 220.478 362.74 219.501 362.74 219.501C346.145 220.396 337.289 222.822 333.321 224.277C332.907 224.426 332.552 224.568 332.237 224.695C331.923 224.889 331.535 225.15 331.088 225.478C327.458 228.135 320.083 234.942 322.051 245.24C324.639 258.748 340.729 262.816 340.729 262.816L359.681 260.942L432.047 288.705L465.625 298.519L455.289 269.07L469.776 288.57C469.776 288.57 475.564 292.75 479.822 291.966C481.155 291.82 482.475 291.593 483.775 291.287C483.775 291.287 489.265 288.302 490.389 286.988C490.389 286.988 494.879 281.891 495.16 278.727C495.16 278.555 495.16 269.734 488.421 258.278L485.825 255.151ZM368.677 227.299C367.185 225.611 365.854 223.811 364.7 221.919C365.923 223.463 367.486 225.508 368.677 227.299ZM368.677 227.299C369.082 227.77 369.338 228.046 369.338 228.046H369.148L368.677 227.299Z" fill="#FFC3B0"/>
<path d="M368.677 227.3C367.185 225.611 365.854 223.811 364.699 221.919C365.923 223.464 367.486 225.508 368.677 227.3Z" fill="#FFC3B0"/>
<path d="M483.758 215.642C488.503 215.642 492.349 214.222 492.349 212.471C492.349 210.719 488.503 209.299 483.758 209.299C479.013 209.299 475.167 210.719 475.167 212.471C475.167 214.222 479.013 215.642 483.758 215.642Z" fill="#FF997D"/>
<path d="M442.027 213.844C445.748 213.844 448.766 212.424 448.766 210.672C448.766 208.92 445.748 207.5 442.027 207.5C438.305 207.5 435.288 208.92 435.288 210.672C435.288 212.424 438.305 213.844 442.027 213.844Z" fill="#FF997D"/>
<path d="M231.866 647.114C231.866 647.114 224.424 625.27 260.558 615.135C260.558 615.135 280.121 612.679 285.669 626.68C285.669 626.68 292.284 639.442 288.216 648.218L310.417 645.979L309.78 651.203L287.926 652.815C287.926 652.815 256.506 660.801 249.775 657.83C249.775 657.845 231.246 654.965 231.866 647.114Z" fill="white"/>
<path d="M326.416 645.001L350.767 642.016L348.659 647.785C348.659 647.785 326.689 649.546 326.416 649.554C326.143 649.561 326.416 645.001 326.416 645.001Z" fill="white"/>
<path d="M348.659 600.5C348.659 600.5 359.35 617.978 350.767 641.501L326.788 644.151V612.896V597.671L332.312 602.149L328.442 612.269C328.442 612.269 339.538 612.015 344.69 609.463C349.841 606.911 344.045 609.172 344.045 609.172L348.659 600.5Z" fill="#160404"/>
<path d="M309.97 594.216H301.528C301.528 594.216 296.658 608.321 296.567 611.269C296.567 611.269 268.04 610.955 261.384 614.664C261.384 614.664 277.409 613.717 284.131 623.292C290.853 632.867 288.265 648.218 288.265 648.218L309.83 645.979L309.97 594.216Z" fill="#160404"/>
<path d="M353.893 609.926C353.893 609.926 376.854 618.68 367.494 638.688C367.494 638.688 400.568 638.061 406.679 636.21C406.679 636.21 427.458 635.039 429.971 623.523C429.971 623.523 433.948 636.039 420.454 638.666C420.454 638.666 407.274 644.33 369.33 642.517C369.33 642.517 351.081 645.875 349.527 644.979L350.924 640.927C350.924 640.927 354.174 632.449 354.066 624.217C354.099 624.24 353.496 610.59 353.893 609.926Z" fill="white"/>
<path d="M368.776 595.321C368.776 595.321 366.692 603.754 367.544 607.717C368.396 611.68 385.487 609.478 385.487 609.478C385.487 609.478 391.275 597.955 388.877 594.978C388.86 594.978 381.377 596.731 368.776 595.321Z" fill="#160404"/>
<path d="M367.527 607.717C367.527 607.717 355.042 608.694 353.239 609.955C353.239 609.955 366.576 613.687 367.965 622.441C369.355 631.195 371 629.993 367.965 638.718C367.965 638.718 398.385 638.262 408.365 636.083C408.365 636.083 427.73 634.658 430.004 623.575C430.004 623.575 424.332 603.604 421.297 602.567C421.297 602.567 412.417 592.119 405.091 595.671L406.745 600.052L386.603 606.336C386.603 606.336 385.404 609.672 384.527 609.955C384.486 609.926 368.991 612.456 367.527 607.717Z" fill="#160404"/>
<path d="M513.277 307.474V314.601L490.894 315.833V655.465H479.028V373.193L327.078 381.566V686.705H309.97V382.962L156.176 342.916V611.329H140.647V282.846L124.573 278.585V264.241L324.126 250.86C324.126 250.86 331.568 261.943 340.754 262.861L359.681 260.943L433.766 289.436L465.625 298.519L513.277 307.474Z" fill="#B25B20"/>
<path d="M602.51 363.536C602.51 363.536 620.04 230.971 618.485 180.253C618.485 180.253 613.987 159.267 634.419 156.237C634.419 156.237 681.549 144.572 752.658 156.237C752.658 156.237 768.89 154.409 768.369 174.962C768.369 174.962 771.42 303.825 698.086 413.552C698.086 413.552 691.372 433.038 671.718 423.016L657.959 417.366L622.768 403.037L618.634 393.992C618.634 393.992 667.567 413.396 668.568 413.985C669.568 414.575 684.898 423.553 693.191 409.59C693.191 409.59 758.818 302.757 761.051 199.059L761.522 185.425C761.522 185.425 763.813 162.416 749.831 163.125C749.831 163.125 679.68 149.789 643.473 163.125C643.473 163.125 629.333 159.961 623.934 175.484C623.934 175.484 620.048 252.987 614.367 311.191C611.837 337.184 610.531 359.327 606.33 368.999C606.372 368.999 603.883 368.461 602.51 363.536Z" fill="#B25B20"/>
<path d="M618.361 275.294C618.279 276.443 617.7 281.264 616.832 288.19C617.501 282.018 618.188 275.503 618.849 268.786L618.361 275.294Z" fill="#B25B20"/>
<path d="M624.166 177.574C624.108 176.827 624.042 176.148 623.975 175.491C624.097 176.18 624.16 176.876 624.166 177.574Z" fill="#B25B20"/>
<path d="M631.756 351.088C627.184 372.618 619.196 385.619 616.484 389.582L613.656 383.902L608.216 375.387C625.654 345.632 633.947 165.506 634.013 164.103C637.039 163.072 640.303 162.743 643.506 163.148C646.197 162.25 648.962 161.541 651.774 161.028C653.866 291.735 631.756 351.088 631.756 351.088Z" fill="#B25B20"/>
<path d="M673.33 302.31C669.196 331.661 636.461 401.119 636.461 401.119L618.675 393.992L617.807 392.253L620.288 393.746C675.075 252.248 661.357 159.707 661.357 159.707L651.774 160.976C659.894 159.342 674.198 157.439 695.647 157.879C695.176 218.306 673.33 302.31 673.33 302.31Z" fill="#B25B20"/>
<path d="M712.027 302.31C699.715 355.647 663.243 411.858 663.243 411.858L636.535 401.164L638.842 401.507C706.892 293.787 702.51 166.633 702.096 158.065C711.192 158.528 725.323 159.625 736.576 161.051C732.26 247.703 712.027 302.31 712.027 302.31Z" fill="#B25B20"/>
<path d="M739.396 161.409C743.326 161.906 747.389 162.494 751.584 163.17L739.396 161.409Z" fill="#B25B20"/>
<path d="M693.224 409.597C693.224 409.597 684.675 424.65 668.832 413.762L665.169 412.553C723.553 336.945 746.746 163.17 746.746 163.17C746.746 163.17 761.754 163.484 761.555 177.305C761.531 177.305 765.185 287.466 693.224 409.597Z" fill="#B25B20"/>
<path d="M617.807 392.253L615.55 390.88C615.55 390.88 615.889 390.447 616.484 389.582L617.807 392.253Z" fill="#B25B20"/>
<path d="M706.132 158.29C702.455 158.096 698.949 157.969 695.614 157.909L706.132 157.842V158.29Z" fill="#B25B20"/>
<path d="M739.396 161.409L736.617 161.051V161.006L739.396 161.409Z" fill="#B25B20"/>
<path d="M624.166 177.618C625.464 195.321 622.322 234.292 618.857 268.711C620.337 248.837 624.579 190.305 624.166 177.618Z" fill="#B25B20"/>
<path d="M634.013 164.073C625.555 167.111 623.975 175.484 623.975 175.484C623.975 175.484 624.513 165.029 634.013 164.073Z" fill="#B25B20"/>
<path d="M643.465 411.665L658.042 417.366C658.042 417.366 655.305 423.061 657.538 428.658L666.633 432.986C666.633 432.986 668.146 432.412 667.336 450.957C667.336 450.957 668.675 452.345 658.025 454.875L599.55 468.674L527.73 477.824L512.326 478.063L491.712 472.48V465.816L505.926 462.084L511.598 461.01L530.55 455.786C530.55 455.786 566.857 447.114 570.735 447.181C571.644 447.181 579.326 447.487 579.342 447.382C579.359 447.278 608.282 437.345 608.282 437.345L622.396 421.269L622.826 419.62L623.521 414.023L641.869 422.075C641.869 422.075 641.298 416.433 643.465 411.665Z" fill="#B25B20"/>
<path d="M698.169 620.762L690.735 622.321L667.906 537.93L532.708 558.953L525.134 655.748L517.518 655.33L527.73 477.794L539.025 476.6L533.361 551.767L665.781 531.094L646.085 457.808L658.042 454.875L698.169 620.762Z" fill="#B25B20"/>
<path d="M467.891 473.331L477.251 470.577L475.25 503.071L478.78 502.519L479.028 509.601H474.257L467.527 595.641L460.755 595.261L467.891 473.331Z" fill="#160404"/>
<path d="M491.332 500.571L526.705 495.07L526.366 501.474L491.332 506.944V500.571Z" fill="#160404"/>
<path d="M538.09 493.294L592.547 484.831L589.529 469.92L597.764 468.875L614.946 538.602L607.157 539.699L594.506 490.727L537.338 499.795L538.09 493.294Z" fill="#160404"/>
<path d="M609.778 546.976C609.778 547.453 614.74 565.924 614.74 565.924L621.354 564.543L616.832 546.289L609.778 546.976Z" fill="#160404"/>
<path d="M446.814 259.622C446.302 259.778 453.057 290.653 439.075 290.966L465.625 298.518L455.29 269.07C455.29 269.07 447.988 259.271 446.814 259.622Z" fill="#FF997D"/>
<path d="M452.569 418.538C452.569 418.538 477.92 438.277 464.691 473.697L471.306 472.316C471.306 472.316 478.747 445.658 474.712 441.524C473.995 436.132 471.501 431.058 467.554 426.96C463.606 422.862 458.386 419.928 452.569 418.538Z" fill="#FF997D"/>
<path d="M326.78 329.647L478.433 332.863V316.557L326.78 324.93V329.647Z" fill="#160404"/>
<path d="M510.308 238.36C510.308 238.36 508.191 243.688 521.305 243.517L496.723 243.293L510.308 238.36Z" fill="#160404"/>
<path d="M124.573 264.241L324.266 250.86" stroke="#160404" stroke-width="3" stroke-miterlimit="10" stroke-linecap="round"/>
<path d="M484.279 301.892L306.82 311.691L124.573 264.241" stroke="#7A3E15" stroke-width="3" stroke-miterlimit="10" stroke-linecap="round"/>
<path d="M309.97 382.954L156.159 342.908" stroke="#160404" stroke-width="3" stroke-miterlimit="10" stroke-linecap="round"/>
<path d="M478.805 373.193L327.078 381.566" stroke="#160404" stroke-width="3" stroke-miterlimit="10" stroke-linecap="round"/>
<path d="M124.573 278.563V264.167" stroke="#160404" stroke-width="3" stroke-miterlimit="10" stroke-linecap="round"/>
<path d="M513.277 314.571V307.81" stroke="#160404" stroke-width="3" stroke-miterlimit="10" stroke-linecap="round"/>
<path d="M156.159 286.802V342.908" stroke="#7A3E15" stroke-width="3" stroke-miterlimit="10" stroke-linecap="round"/>
<path d="M156.159 342.908V611.329H140.639V282.839L156.159 286.802" stroke="#160404" stroke-width="3" stroke-miterlimit="10" stroke-linecap="round"/>
<path d="M326.805 325.639V381.566" stroke="#7A3E15" stroke-width="3" stroke-miterlimit="10" stroke-linecap="round"/>
<path d="M309.97 382.955V326.781" stroke="#7A3E15" stroke-width="3" stroke-miterlimit="10" stroke-linecap="round"/>
<path d="M491.332 655.465H479.028V316.489L491.332 315.758V655.465Z" stroke="#160404" stroke-width="3" stroke-miterlimit="10" stroke-linecap="round"/>
<path d="M513.277 314.631L306.82 326.027L124.573 278.577" stroke="#160404" stroke-width="3" stroke-miterlimit="10" stroke-linecap="round"/>
<path d="M326.805 381.566V686.705H309.97V382.955" stroke="#160404" stroke-width="3" stroke-miterlimit="10" stroke-linecap="round"/>
<path d="M602.51 365.469C606.934 334.871 610.68 302.713 613.499 269.137C616.385 234.77 618.055 201.784 618.775 170.327C618.844 167.152 620.101 164.092 622.343 161.645C624.585 159.198 627.678 157.507 631.119 156.849C672.327 148.969 714.907 148.969 756.115 156.849C759.583 157.521 762.693 159.244 764.928 161.731C767.163 164.218 768.388 167.319 768.402 170.521C768.813 223.035 759.791 275.261 741.686 325.169C729.832 357.727 714.172 389.054 694.969 418.62C693.026 421.616 689.925 423.857 686.262 424.914C682.599 425.971 678.632 425.768 675.125 424.344L622.421 402.836" stroke="#160404" stroke-width="3" stroke-miterlimit="10" stroke-linecap="round"/>
<path d="M623.545 413.985L666.17 432.702C666.566 432.874 666.892 433.154 667.101 433.503C667.311 433.852 667.392 434.252 667.334 434.646C667.277 435.039 667.082 435.406 666.78 435.693C666.477 435.981 666.081 436.175 665.649 436.247C617.819 455.369 565.737 464.248 513.475 462.189C513.254 462.226 513.029 462.239 512.805 462.226C512.581 462.217 512.358 462.182 512.144 462.121L509.175 461.315" stroke="#160404" stroke-width="3" stroke-miterlimit="10" stroke-linecap="round"/>
<path d="M667.352 450.435C667.286 451.181 667.03 451.867 666.062 452.032C645.619 458.28 624.792 463.453 603.685 467.525C573.91 473.263 543.665 476.792 513.252 478.077C513.098 478.094 512.943 478.094 512.789 478.077C512.631 478.071 512.476 478.046 512.326 478.003L491.332 472.316" stroke="#160404" stroke-width="3" stroke-miterlimit="10" stroke-linecap="round"/>
<path d="M667.352 435.21V450.957" stroke="#160404" stroke-width="3" stroke-miterlimit="10" stroke-linecap="round"/>
<path d="M512.822 462.047V477.794" stroke="#160404" stroke-width="3" stroke-miterlimit="10" stroke-linecap="round"/>
<path d="M651.559 160.215C651.559 160.215 656.744 314.086 617.129 390.88" stroke="#7A3E15" stroke-width="3" stroke-miterlimit="10" stroke-linecap="round"/>
<path d="M695.663 157.469C695.663 157.469 690.702 296.183 637.064 401.142" stroke="#7A3E15" stroke-width="3" stroke-miterlimit="10" stroke-linecap="round"/>
<path d="M735.824 160.454C735.824 160.454 734.997 296.951 663.391 411.858" stroke="#7A3E15" stroke-width="3" stroke-miterlimit="10" stroke-linecap="round"/>
<path d="M698.169 620.762L690.735 622.322L646.59 457.629L657.306 454.875L698.169 620.762Z" stroke="#160404" stroke-width="3" stroke-miterlimit="10" stroke-linecap="round"/>
<path d="M517.518 655.33L525.134 655.748L539.025 476.443L527.73 477.794L517.518 655.33Z" stroke="#160404" stroke-width="3" stroke-miterlimit="10" stroke-linecap="round"/>
<path d="M667.906 537.93L532.708 558.953L533.824 551.61L665.781 531.094L667.906 537.93Z" stroke="#160404" stroke-width="3" stroke-miterlimit="10" stroke-linecap="round"/>
<path d="M607.811 540.11L589.057 470.159" stroke="#160404" stroke-width="3" stroke-miterlimit="10" stroke-linecap="round"/>
<path d="M616.741 545.894L621.338 564.544L614.731 565.924L609.778 547.453" stroke="#160404" stroke-width="3" stroke-miterlimit="10" stroke-linecap="round"/>
<path d="M597.715 468.644L615.037 538.982" stroke="#160404" stroke-width="3" stroke-miterlimit="10" stroke-linecap="round"/>
<path d="M467.891 473.331L460.755 595.261L467.527 595.642L477.251 471.301" stroke="#160404" stroke-width="3" stroke-miterlimit="10" stroke-linecap="round"/>
<path d="M491.332 500.571L526.895 495.041" stroke="#160404" stroke-width="3" stroke-miterlimit="10" stroke-linecap="round"/>
<path d="M479.028 508.855L474.257 509.601L475.25 503.071L479.028 502.481" stroke="#160404" stroke-width="3" stroke-miterlimit="10" stroke-linecap="round"/>
<path d="M526.515 501.474L491.332 506.944" stroke="#160404" stroke-width="3" stroke-miterlimit="10" stroke-linecap="round"/>
<path d="M537.842 493.339L592.547 484.832L594.432 490.914L537.338 499.795" stroke="#160404" stroke-width="3" stroke-miterlimit="10" stroke-linecap="round"/>
<path d="M658.042 417.366C656.601 420.995 656.425 424.936 657.537 428.658" stroke="#160404" stroke-width="3" stroke-miterlimit="10" stroke-linecap="round"/>
<path d="M643.464 411.665C641.92 414.999 641.514 418.673 642.298 422.217" stroke="#160404" stroke-width="3" stroke-miterlimit="10" stroke-linecap="round"/>
<path d="M606.025 371.305C610.878 339.543 616.302 300.407 619.188 266.077C621.834 234.479 623.372 204.135 624.033 175.223C624.096 172.304 625.253 169.49 627.314 167.241C629.376 164.991 632.221 163.438 635.386 162.834C673.276 155.588 712.428 155.588 750.318 162.834C753.508 163.454 756.368 165.038 758.424 167.325C760.48 169.612 761.608 172.465 761.622 175.41C761.986 223.703 753.676 271.73 737.014 317.624C724.537 351.953 707.248 388.037 692.364 410.956C690.578 413.716 687.721 415.781 684.347 416.753C680.972 417.724 677.319 417.534 674.091 416.217L618.485 393.53" stroke="#160404" stroke-width="3" stroke-miterlimit="10" stroke-linecap="round"/>
<path d="M432.014 191.798C432.311 194.828 433.444 225.717 437.578 233.927" stroke="#160404" stroke-width="3" stroke-miterlimit="10" stroke-linecap="round"/>
<path d="M449.154 202.993C449.154 206.493 447.5 209.336 445.433 209.336C443.366 209.336 441.712 206.493 441.712 202.993C441.666 201.356 442.09 199.736 442.944 198.291H447.906C448.765 199.734 449.196 201.354 449.154 202.993Z" fill="#160404"/>
<path d="M482.427 204.119C482.427 207.851 480.641 210.926 478.433 210.926C476.225 210.926 474.439 207.873 474.439 204.119C474.422 202.721 474.702 201.333 475.266 200.03H481.633C482.185 201.335 482.455 202.723 482.427 204.119Z" fill="#160404"/>
<path d="M471.066 199.261C479.371 198.617 487.704 200.173 495.044 203.739" stroke="#160404" stroke-width="3" stroke-miterlimit="10" stroke-linecap="round"/>
<path d="M435.925 198.858C436.751 198.858 446.674 197.365 454.942 198.112" stroke="#160404" stroke-width="3" stroke-miterlimit="10" stroke-linecap="round"/>
<path d="M473.133 189.903C473.133 189.903 473.96 187.664 475.613 186.917" stroke="#160404" stroke-width="3" stroke-miterlimit="10" stroke-linecap="round"/>
<path d="M475.614 189.903C483.092 189.094 490.673 189.601 497.939 191.395" stroke="#160404" stroke-width="3" stroke-miterlimit="10" stroke-linecap="round"/>
<path d="M436.751 189.903C436.751 189.903 445.02 186.917 452.462 187.664" stroke="#160404" stroke-width="3" stroke-miterlimit="10" stroke-linecap="round"/>
<path d="M454.115 185.425C455.087 186.315 455.921 187.319 456.596 188.41" stroke="#160404" stroke-width="3" stroke-miterlimit="10" stroke-linecap="round"/>
<path d="M514.219 243.584C525.258 243.584 534.419 243.546 534.733 243.263" stroke="#777070" stroke-width="3" stroke-miterlimit="10" stroke-linecap="round"/>
<path d="M475.175 243.292C474.671 243.292 496.789 243.569 514.219 243.613" stroke="#160404" stroke-width="3" stroke-miterlimit="10" stroke-linecap="round"/>
<path d="M538.868 230.605C538.868 230.605 580.21 268.667 600.055 326.878L596.913 351.311L586.693 362.961L581.732 370.536L574.083 368.081C574.083 368.081 546.797 400.171 538.843 397.477C530.889 394.783 511.425 385.007 511.425 385.007L491.332 385.835" stroke="#160404" stroke-width="3" stroke-miterlimit="10" stroke-linecap="round"/>
<path d="M498.162 241.703C498.162 241.703 523.158 218.665 529.772 220.157L541.539 229.77L491.332 243.591" stroke="#160404" stroke-width="3" stroke-miterlimit="10" stroke-linecap="round"/>
<path d="M454.942 165.006C454.785 168.073 454.521 173.506 464.988 177.992C464.988 177.992 465.509 180.589 469.95 175.633C474.39 170.678 473.356 175.103 484.833 178.671C496.31 182.238 487.189 172.559 484.833 169.491C482.476 166.424 506.331 177.417 503.669 186.917C501.006 196.418 511.003 187.417 512.309 185.425C513.616 183.432 514.137 206.097 508.382 207.985C502.627 209.873 516.394 207.985 516.394 207.985C516.394 207.985 509.953 224.993 504.719 222.866C504.719 222.866 512.83 228.665 520.677 223.046C520.677 223.046 524.902 219.038 530.136 220.456C535.37 221.874 537.95 231.434 544.193 230.576L550.741 228.337C550.741 228.337 542.886 222.904 542.886 214.903C542.886 206.903 552.569 209.679 559.374 206.873C566.179 204.067 557.803 205.217 550.212 194.119C542.622 183.022 555.711 176.641 554.925 176.41C554.14 176.178 544.069 164.058 541.538 159.812C539.008 155.565 550.816 149.894 550.816 149.894C550.816 149.894 536.189 146.588 534.733 141.625C533.278 136.662 518.37 128.87 518.37 128.87C518.37 128.87 520.983 141.625 518.37 141.863C515.757 142.102 511.573 124.385 508.448 122.728C505.322 121.072 498.724 124.855 497.955 126.982C497.186 129.109 494.309 123.102 488.033 122.325C481.757 121.549 462.128 125.094 459.25 120.131C456.373 115.168 455.331 133.833 457.026 135.251C458.721 136.669 431.253 136.901 426.019 132.654C420.785 128.408 423.927 143.513 430.467 145.64C437.008 147.767 413.426 153.909 409.292 149.894C405.157 145.879 412.69 162.409 421.322 162.409C429.955 162.409 414.261 167.842 419.495 177.051C424.729 186.261 425.366 190.753 429.417 192.403L433.494 194.044C433.494 194.044 431.526 184.164 438.604 179.439C445.682 174.715 448.782 178.23 450.353 178.469C451.924 178.708 454.942 165.006 454.942 165.006Z" fill="#160404"/>
<path d="M514.219 307.683C521.52 309.123 526.812 310.213 527.292 310.429L553.04 323.893" stroke="#777070" stroke-width="3" stroke-miterlimit="10" stroke-linecap="round"/>
<path d="M357.2 260.935L432.849 289.003L465.625 298.519C466.212 298.519 496.276 304.153 514.219 307.676" stroke="#160404" stroke-width="3" stroke-miterlimit="10" stroke-linecap="round"/>
<path d="M394.193 215.68C394.193 215.68 418.693 217.486 433.386 211.202" stroke="#160404" stroke-width="3" stroke-miterlimit="10" stroke-linecap="round"/>
<path d="M455.298 269.077L466.096 298.317" stroke="#160404" stroke-width="3" stroke-miterlimit="10" stroke-linecap="round"/>
<path d="M595.052 353.401C595.052 353.401 622.082 396.35 622.446 403.545C622.81 410.739 623.149 420.247 622.446 421.232C622.322 421.396 609.836 436.449 607.835 437.158C597.913 440.68 583.377 447.927 574.629 447.084C564.111 446.069 491.357 465.943 491.357 465.943" stroke="#160404" stroke-width="3" stroke-miterlimit="10" stroke-linecap="round"/>
<path d="M366.651 575.23C369.909 582.88 372.819 590.156 374.671 595.642" stroke="#160404" stroke-width="3" stroke-miterlimit="10" stroke-linecap="round"/>
<path d="M326.664 492.018C330.253 500.862 332.998 507.534 332.998 507.534C332.998 507.534 344.185 527.31 346.228 530.915" stroke="#160404" stroke-width="3" stroke-miterlimit="10" stroke-linecap="round"/>
<path d="M309.97 410.791C308.247 411.689 306.693 412.828 305.365 414.165C294.533 425.837 310.706 447.748 309.97 448.74" stroke="#160404" stroke-width="3" stroke-miterlimit="10" stroke-linecap="round"/>
<path d="M474.043 373.454C474.043 373.454 467.618 388.962 462.88 390.619C458.142 392.276 388.72 391.059 376.358 394.791C376.358 394.791 348.32 398.395 327.078 404.396" stroke="#160404" stroke-width="3" stroke-miterlimit="10" stroke-linecap="round"/>
<path d="M390.613 544.796C395.649 566.2 401.933 589.343 406.712 599.351" stroke="#160404" stroke-width="3" stroke-miterlimit="10" stroke-linecap="round"/>
<path d="M359.309 456.502C359.309 456.502 367.875 468.346 374.093 479.495" stroke="#160404" stroke-width="3" stroke-miterlimit="10" stroke-linecap="round"/>
<path d="M357.928 437.113C357.928 437.942 362.219 451.793 359.309 456.517" stroke="#FF997D" stroke-width="3" stroke-miterlimit="10" stroke-linecap="round"/>
<path d="M360.036 457.532L384.999 458.3" stroke="#160404" stroke-width="3" stroke-miterlimit="10" stroke-linecap="round"/>
<path d="M377.871 394.388C377.871 394.388 389.332 388.649 408.341 420.889" stroke="#160404" stroke-width="3" stroke-miterlimit="10" stroke-linecap="round"/>
<path d="M479.028 405.194C460.987 409.172 441.283 413.679 433.866 415.963C433.788 415.977 433.719 416.018 433.675 416.078C433.631 416.137 433.615 416.21 433.63 416.28C433.646 416.351 433.691 416.412 433.757 416.452C433.823 416.492 433.904 416.507 433.982 416.493C444.549 415.993 489.852 416.933 471.264 472.316L479.062 470.077" stroke="#160404" stroke-width="3" stroke-miterlimit="10" stroke-linecap="round"/>
<path d="M514.228 397.604C514.228 397.604 504.512 399.649 491.712 402.425" stroke="#160404" stroke-width="3" stroke-miterlimit="10" stroke-linecap="round"/>
<path d="M434.966 416.433C434.966 416.433 393.747 421.031 388.786 429.001C388.786 429.001 384.652 443.867 385.024 455.741" stroke="#160404" stroke-width="3" stroke-miterlimit="10" stroke-linecap="round"/>
<path d="M427.325 484.062C424.514 489.973 422.249 495.891 421.943 500.078C421.116 511.795 348.138 592.843 344.037 609.187" stroke="#160404" stroke-width="3" stroke-miterlimit="10" stroke-linecap="round"/>
<path d="M439.538 462.301C435.036 469.351 430.959 476.616 427.325 484.063" stroke="#FF997D" stroke-width="3" stroke-miterlimit="10" stroke-linecap="round"/>
<path d="M384.999 458.793C384.999 458.793 347.6 527.378 327.235 567.558" stroke="#160404" stroke-width="3" stroke-miterlimit="10" stroke-linecap="round"/>
<path d="M427.325 484.063C427.325 484.063 464.534 474.256 471.644 472.204" stroke="#160404" stroke-width="3" stroke-miterlimit="10" stroke-linecap="round"/>
<path d="M348.659 608.008C341.751 610.811 334.339 612.467 326.78 612.896" stroke="#160404" stroke-width="3" stroke-miterlimit="10" stroke-linecap="round"/>
<path d="M326.78 612.896C333.064 606.843 331.956 601.97 331.956 601.97C330.613 600.327 328.878 598.978 326.879 598.022" stroke="#160404" stroke-width="3" stroke-miterlimit="10" stroke-linecap="round"/>
<path d="M309.97 594.216C307.4 594.048 304.821 594.018 302.247 594.127C302.247 594.127 297.708 602.433 297.187 611.456C296.947 615.687 303.223 616.448 309.97 616.068" stroke="#160404" stroke-width="3" stroke-miterlimit="10" stroke-linecap="round"/>
<path d="M326.805 649.278L348.659 647.263C348.659 647.263 359.234 624.083 350.42 604.44" stroke="#160404" stroke-width="3" stroke-miterlimit="10" stroke-linecap="round"/>
<path d="M297.187 611.456C297.187 611.456 272.382 609.814 257.143 616.157C241.904 622.501 226.359 632.464 232.941 650.92C232.941 650.92 242.805 665.099 287.926 652.83L309.78 650.808" stroke="#160404" stroke-width="3" stroke-miterlimit="10" stroke-linecap="round"/>
<path d="M257.151 616.157C257.151 616.157 287.579 607.425 289.969 640.949" stroke="#160404" stroke-width="3" stroke-miterlimit="10" stroke-linecap="round"/>
<path d="M286.661 627.396C286.661 627.396 300.718 627.262 309.946 625.956" stroke="#160404" stroke-width="3" stroke-miterlimit="10" stroke-linecap="round"/>
<path d="M326.805 644.151L350.767 641.501" stroke="#160404" stroke-width="3" stroke-miterlimit="10" stroke-linecap="round"/>
<path d="M231.651 645.972C231.651 645.972 239.589 656.883 267.991 651.651C296.393 646.419 305.199 646.546 305.199 646.546L309.813 646.002" stroke="#160404" stroke-width="3" stroke-miterlimit="10" stroke-linecap="round"/>
<path d="M386.57 606.306C386.57 606.306 403.347 602.224 410.995 598.022" stroke="#160404" stroke-width="3" stroke-miterlimit="10" stroke-linecap="round"/>
<path d="M368.85 594.94C369.578 595.157 380.807 596.798 387.215 594.94C393.623 593.082 384.999 609.553 384.999 609.553C384.999 609.553 369.818 611.844 368.131 608.135C366.444 604.426 368.85 594.94 368.85 594.94Z" stroke="#160404" stroke-width="3" stroke-miterlimit="10" stroke-linecap="round"/>
<path d="M353.239 609.478C358.08 608.523 363 607.934 367.949 607.717" stroke="#160404" stroke-width="3" stroke-miterlimit="10" stroke-linecap="round"/>
<path d="M405.786 595.201C405.786 595.201 422.323 590.791 428.888 621.128C428.888 621.128 435.04 633.106 423.241 637.74C406.902 644.158 369.363 642.539 369.363 642.539C362.984 644.079 356.419 644.906 349.816 645.002" stroke="#160404" stroke-width="3" stroke-miterlimit="10" stroke-linecap="round"/>
<path d="M353.893 610.687C359.391 612.508 370.736 618.053 369.537 632.031" stroke="#160404" stroke-width="3" stroke-miterlimit="10" stroke-linecap="round"/>
<path d="M351.329 640.487C356.785 640.417 362.216 639.814 367.527 638.688C367.527 638.688 418.966 638.785 426.234 629.643C426.234 629.643 429.442 626.658 430.021 624.24" stroke="#160404" stroke-width="3" stroke-miterlimit="10" stroke-linecap="round"/>
<path d="M383.568 609.926C383.568 609.926 384.594 615.896 383.568 618.702C382.543 621.508 367.726 621.546 367.726 621.546" stroke="#160404" stroke-width="3" stroke-miterlimit="10" stroke-linecap="round"/>
<path d="M466.807 241.099C470.231 240.457 485.064 246.718 492.919 247.547C500.774 248.375 492.961 256.502 485.825 255.144" stroke="#160404" stroke-width="3" stroke-miterlimit="10" stroke-linecap="round"/>
<path d="M491.332 435.165C515.641 430.352 583.733 416.881 586.61 416.336C590.108 415.672 598.773 394.694 595.83 377.38" stroke="#160404" stroke-width="3" stroke-miterlimit="10" stroke-linecap="round"/>
<path d="M382.485 213.836C393.813 215.68 401.023 227.62 401.238 227.859" stroke="#FF997D" stroke-width="3" stroke-miterlimit="10" stroke-linecap="round"/>
<path d="M375.192 214.635C390.514 218.448 392.002 229.434 392.002 229.434" stroke="#FF997D" stroke-width="3" stroke-miterlimit="10" stroke-linecap="round"/>
<path d="M368.09 214.695L382.94 229.449" stroke="#FF997D" stroke-width="3" stroke-miterlimit="10" stroke-linecap="round"/>
<path d="M469.933 265.487L478.466 283.697L479.822 291.973" stroke="#FF997D" stroke-width="3" stroke-miterlimit="10" stroke-linecap="round"/>
<path d="M478.987 265.487L483.254 277.697L483.775 290.287" stroke="#FF997D" stroke-width="3" stroke-miterlimit="10" stroke-linecap="round"/>
<path d="M485.015 264.241L490.439 278.727V286.996" stroke="#FF997D" stroke-width="3" stroke-miterlimit="10" stroke-linecap="round"/>
<path d="M363.137 219.21C363.137 219.21 334.387 223.016 332.469 224.21" stroke="#160404" stroke-width="3" stroke-miterlimit="10" stroke-linecap="round"/>
<path d="M410.838 227.426C410.838 227.426 411.235 217.53 414.906 217.03C418.577 216.53 416.502 228.702 422.976 233.546" stroke="#160404" stroke-width="3" stroke-miterlimit="10" stroke-linecap="round"/>
<path d="M359.896 227.083L448.253 236.136L476.118 243.599L488.463 258.293C488.463 258.293 496.409 274.868 495.078 279.727C493.746 284.585 484.064 298.302 469.817 288.585L450.8 263.01C450.8 263.01 441.374 256.577 441.704 253.577C442.035 250.576 341.217 262.868 340.746 262.868C340.274 262.868 324.911 258.293 322.059 245.285C319.206 232.277 332.394 224.27 332.394 224.27" stroke="#160404" stroke-width="3" stroke-miterlimit="10" stroke-linecap="round"/>
<path d="M369.934 228.113C369.934 228.113 355.952 214.545 368.09 214.68C380.228 214.814 381.997 213.971 385.826 212.941C389.654 211.911 399.841 219.471 401.007 219.322C402.173 219.172 416.642 232.755 416.642 232.755" stroke="#160404" stroke-width="3" stroke-miterlimit="10" stroke-linecap="round"/>
<path d="M443.986 201.388C444.717 201.388 445.309 200.854 445.309 200.194C445.309 199.535 444.717 199 443.986 199C443.256 199 442.663 199.535 442.663 200.194C442.663 200.854 443.256 201.388 443.986 201.388Z" fill="white"/>
<path d="M476.936 202.418C477.667 202.418 478.259 201.883 478.259 201.224C478.259 200.564 477.667 200.03 476.936 200.03C476.206 200.03 475.614 200.564 475.614 201.224C475.614 201.883 476.206 202.418 476.936 202.418Z" fill="white"/>
<path d="M439.058 153.954C437.383 155.949 435.054 157.419 432.402 158.155C430.881 158.573 431.575 160.737 433.064 160.312C436.132 159.483 438.839 157.814 440.811 155.536C441.746 154.409 440.001 152.812 439.058 153.954Z" fill="#FFC05C"/>
<path d="M440.712 158.304C440.427 158.159 440.09 158.12 439.774 158.195C439.457 158.27 439.186 158.454 439.017 158.707C438.359 159.561 437.515 160.285 436.536 160.834C435.18 161.581 436.429 163.528 437.793 162.767C439.141 162.012 440.301 161.013 441.2 159.834C441.357 159.573 441.395 159.265 441.303 158.979C441.212 158.693 441 158.45 440.712 158.304Z" fill="#FFC05C"/>
<path d="M542.415 173.014C540.491 171.014 538.808 168.835 537.396 166.514C536.619 165.252 534.477 166.387 535.254 167.648C536.785 170.127 538.597 172.456 540.662 174.596C541.671 175.686 543.415 174.096 542.415 173.014Z" fill="#FFC05C"/>
<path d="M536.908 172.327C536.358 171.7 535.866 171.034 535.436 170.335C535.269 170.078 534.997 169.892 534.678 169.817C534.359 169.743 534.021 169.785 533.737 169.935C533.453 170.086 533.247 170.332 533.164 170.62C533.081 170.907 533.128 171.213 533.295 171.469C533.837 172.329 534.459 173.145 535.155 173.909C535.389 174.117 535.703 174.234 536.031 174.234C536.359 174.234 536.674 174.117 536.908 173.909C537.132 173.696 537.258 173.413 537.258 173.118C537.258 172.824 537.132 172.541 536.908 172.327Z" fill="#FFC05C"/>
</svg>
