<svg width="64" height="64" viewBox="0 0 64 64" fill="none" xmlns="http://www.w3.org/2000/svg">
<path d="M58.6667 32.0002L50.6667 24.0002L50.6667 13.3335L40.0001 13.3335L32.0001 5.33349L24.0001 13.3335L13.3334 13.3335L13.3334 24.0002L5.33342 32.0002L13.3334 40.0002L13.3334 50.6668L24.0001 50.6668L32.0001 58.6668L40.0001 50.6668L50.6667 50.6668L50.6667 40.0002L58.6667 32.0002Z" stroke="#6D6D6D" stroke-width="3" stroke-linejoin="round"/>
<path d="M24 32C24 34.1217 24.8429 36.1566 26.3431 37.6569C27.8434 39.1571 29.8783 40 32 40C34.1217 40 36.1566 39.1571 37.6569 37.6569C39.1571 36.1566 40 34.1217 40 32C40 29.8783 39.1571 27.8434 37.6569 26.3431C36.1566 24.8429 34.1217 24 32 24C29.8783 24 27.8434 24.8429 26.3431 26.3431C24.8429 27.8434 24 29.8783 24 32Z" stroke="#6D6D6D" stroke-width="3" stroke-linejoin="round"/>
</svg>
