<svg width="62" height="62" viewBox="0 0 62 62" fill="none" xmlns="http://www.w3.org/2000/svg">
<path d="M23.4613 9.91083C19.7195 6.16899 13.6528 6.16899 9.91094 9.91083C6.1691 13.6527 6.1691 19.7194 9.91095 23.4612L38.5398 52.0901C42.2816 55.8319 48.3483 55.8319 52.0902 52.0901C55.832 48.3482 55.832 42.2815 52.0902 38.5397L23.4613 9.91083Z" stroke="#5D5D5D" stroke-width="2" stroke-linecap="round" stroke-linejoin="round"/>
<path d="M11.625 25.1746V45.2083C11.625 48.0629 13.9371 50.375 16.7917 50.375H36.8254M25.1746 11.625H45.2083C48.0629 11.625 50.375 13.9371 50.375 16.7917V36.8254M32.5887 41.0427V31.3552H35.7598C37.5526 31.3552 39.007 32.8109 39.007 34.6076C39.007 36.4043 37.5526 37.8626 35.7598 37.8626M35.7598 37.8626H32.5887M35.7598 37.8626L38.9308 41.0401M21.3125 12.6893L18.8906 22.3768L16.4687 12.6893L14.0469 22.3768L11.625 12.6893M43.5421 50.375V40.6875H45.7211C46.2777 40.6873 46.8289 40.7968 47.3431 41.0097C47.8574 41.2227 48.3246 41.5348 48.7182 41.9284C49.1118 42.322 49.4239 42.7892 49.6368 43.3035C49.8497 43.8177 49.9593 44.3689 49.9591 44.9255V46.137C49.9593 46.6935 49.8498 47.2446 49.637 47.7587C49.4241 48.2729 49.1121 48.7401 48.7186 49.1336C48.3252 49.5272 47.8581 49.8394 47.344 50.0524C46.8299 50.2654 46.2789 50.375 45.7224 50.375H43.5421Z" stroke="#5D5D5D" stroke-width="2" stroke-linecap="round" stroke-linejoin="round"/>
<path d="M26.0128 21.6677H26.0115C24.2395 21.6677 22.803 23.1042 22.803 24.8762V28.1467C22.803 29.9187 24.2395 31.3552 26.0115 31.3552H26.0128C27.7848 31.3552 29.2213 29.9187 29.2213 28.1467V24.8762C29.2213 23.1042 27.7848 21.6677 26.0128 21.6677Z" stroke="#5D5D5D" stroke-width="2" stroke-linecap="round" stroke-linejoin="round"/>
</svg>
